<svg width="512" height="512" xmlns="http://www.w3.org/2000/svg" xmlns:svg="http://www.w3.org/2000/svg">
<path fill="deepskyblue" id="gear" d="m499.95313,197.70313l-39.35157,-8.55469c-3.42187,-10.47656 -7.66015,-20.69531 -12.66406,-30.53906l21.78516,-33.88672c3.89062,-6.05469 3.03515,-14.00391 -2.05078,-19.08985l-61.30469,-61.30468c-5.08594,-5.08594 -13.03516,-5.94141 -19.08985,-2.05079l-33.88671,21.78516c-9.84375,-5.00391 -20.0625,-9.24219 -30.53907,-12.66406l-8.55468,-39.35156c-1.52735,-7.03125 -7.75391,-12.04688 -14.94922,-12.04688l-86.69532,0c-7.19531,0 -13.42187,5.01563 -14.94921,12.04688l-8.55469,39.35156c-10.47656,3.42187 -20.69531,7.66015 -30.53906,12.66406l-33.88672,-21.78516c-6.05469,-3.89062 -14.00391,-3.03515 -19.08985,2.05079l-61.30468,61.30468c-5.08594,5.08594 -5.94141,13.03516 -2.05079,19.08985l21.78516,33.88672c-5.00391,9.84375 -9.24219,20.0625 -12.66406,30.53906l-39.35156,8.55469c-7.03125,1.53125 -12.04688,7.7539 -12.04688,14.94921l0,86.69532c0,7.19531 5.01563,13.41797 12.04688,14.94922l39.35156,8.55468c3.42187,10.47657 7.66015,20.69532 12.66406,30.53907l-21.78516,33.88671c-3.89062,6.05469 -3.03515,14.00391 2.05079,19.08985l61.30468,61.30468c5.08594,5.08594 13.03516,5.94141 19.08985,2.05079l33.88672,-21.78516c9.84375,5.00391 20.0625,9.24219 30.53906,12.66406l8.55469,39.35156c1.52734,7.03125 7.7539,12.04688 14.94921,12.04688l86.69532,0c7.19531,0 13.42187,-5.01563 14.94922,-12.04688l8.55468,-39.35156c10.47657,-3.42187 20.69532,-7.66015 30.53907,-12.66406l33.88671,21.78516c6.05469,3.89062 14.00391,3.03906 19.08985,-2.05079l61.30469,-61.30468c5.08593,-5.08594 5.9414,-13.03516 2.05078,-19.08985l-21.78516,-33.88671c5.00391,-9.84375 9.24219,-20.0625 12.66406,-30.53907l39.35157,-8.55468c7.03125,-1.53125 12.04687,-7.75391 12.04687,-14.94922l0,-86.69532c0,-7.19531 -5.01562,-13.41796 -12.04687,-14.94921zm-18.55079,89.3125l-36.08203,7.84375c-5.54297,1.20703 -9.96484,5.3789 -11.48828,10.83984c-3.96484,14.22266 -9.66797,27.97656 -16.94922,40.87891c-2.78906,4.9414 -2.61719,11.01953 0.45313,15.79296l19.98047,31.07813l-43.86329,43.86719l-31.08203,-19.98047c-4.77343,-3.07031 -10.85156,-3.24219 -15.78906,-0.45313c-12.90625,7.28125 -26.66016,12.98438 -40.88281,16.94922c-5.46094,1.52344 -9.63281,5.94531 -10.83985,11.48828l-7.84375,36.08203l-62.03125,0l-7.84375,-36.08203c-1.20703,-5.54297 -5.3789,-9.96484 -10.83984,-11.48828c-14.22266,-3.96484 -27.97656,-9.66797 -40.87891,-16.94922c-4.9414,-2.78906 -11.01953,-2.61328 -15.79296,0.45313l-31.07813,19.98047l-43.86328,-43.86719l19.97656,-31.07813c3.07031,-4.77343 3.2461,-10.85156 0.45703,-15.79296c-7.28125,-12.90235 -12.98437,-26.65625 -16.95312,-40.87891c-1.52344,-5.46094 -5.94141,-9.63281 -11.48438,-10.83984l-36.08593,-7.84375l0,-62.03125l36.08203,-7.84375c5.54297,-1.20704 9.96484,-5.37891 11.48828,-10.83985c3.96484,-14.22265 9.66797,-27.97656 16.94922,-40.8789c2.78906,-4.94141 2.61718,-11.01954 -0.45313,-15.79297l-19.98047,-31.07813l43.86328,-43.86719l31.08204,19.98047c4.77343,3.07032 10.85156,3.24219 15.78906,0.45313c12.90625,-7.28125 26.66015,-12.98438 40.88281,-16.94922c5.46094,-1.52344 9.63281,-5.94531 10.83984,-11.48828l7.84375,-36.08203l62.03125,0l7.84375,36.08203c1.20704,5.54297 5.37891,9.96484 10.83985,11.48828c14.22265,3.96484 27.97656,9.66797 40.8789,16.94922c4.94141,2.78906 11.01954,2.61328 15.79297,-0.45313l31.07813,-19.98047l43.86328,43.86719l-19.97656,31.07813c-3.07032,4.77343 -3.2461,10.85156 -0.45703,15.79297c7.28515,12.90234 12.98437,26.65625 16.95312,40.8789c1.52344,5.46094 5.94141,9.63281 11.48438,10.83985l36.08593,7.84375l0,62.03125zm0,0"/>
<circle stroke="deepskyblue" fill-opacity="0" r="110" cy="256" cx="256" stroke-width="60"/>
</svg>